<?xml version="1.0" encoding="UTF-8" standalone="no"?>
<!DOCTYPE svg PUBLIC "-//W3C//DTD SVG 1.1//EN"
 "http://www.w3.org/Graphics/SVG/1.1/DTD/svg11.dtd">
<!-- Generated by graphviz version 2.38.0 (20140413.2041)
 -->
<!-- Title: grafica Pages: 1 -->
<svg width="576pt" height="240pt"
 viewBox="0.00 0.00 576.00 240.00" xmlns="http://www.w3.org/2000/svg" xmlns:xlink="http://www.w3.org/1999/xlink">
<g id="graph0" class="graph" transform="scale(1 1) rotate(0) translate(4 236)">
<title>grafica</title>
<polygon fill="white" stroke="none" points="-4,4 -4,-236 572,-236 572,4 -4,4"/>
<!-- TABLA -->
<g id="node1" class="node"><title>TABLA</title>
<polygon fill="none" stroke="black" points="568,-232 0,-232 0,-0 568,-0 568,-232"/>
<polygon fill="none" stroke="black" points="9,-190 9,-227 559,-227 559,-190 9,-190"/>
<text text-anchor="start" x="216" y="-204.8" font-family="Times New Roman,serif" font-size="14.00">TABLA DE ERRORES</text>
<polygon fill="none" stroke="black" points="9,-153 9,-190 39,-190 39,-153 9,-153"/>
<text text-anchor="start" x="20" y="-167.8" font-family="Times New Roman,serif" font-size="14.00">#</text>
<polygon fill="none" stroke="black" points="39,-153 39,-190 117,-190 117,-153 39,-153"/>
<text text-anchor="start" x="64" y="-167.8" font-family="Times New Roman,serif" font-size="14.00">Tipo</text>
<polygon fill="none" stroke="black" points="117,-153 117,-190 433,-190 433,-153 117,-153"/>
<text text-anchor="start" x="241" y="-167.8" font-family="Times New Roman,serif" font-size="14.00">Descripcion</text>
<polygon fill="none" stroke="black" points="433,-153 433,-190 486,-190 486,-153 433,-153"/>
<text text-anchor="start" x="444" y="-167.8" font-family="Times New Roman,serif" font-size="14.00">Linea</text>
<polygon fill="none" stroke="black" points="486,-153 486,-190 559,-190 559,-153 486,-153"/>
<text text-anchor="start" x="497" y="-167.8" font-family="Times New Roman,serif" font-size="14.00">Columna</text>
<polygon fill="none" stroke="black" points="9,-116 9,-153 39,-153 39,-116 9,-116"/>
<text text-anchor="start" x="20.5" y="-130.8" font-family="Times New Roman,serif" font-size="14.00">1</text>
<polygon fill="none" stroke="black" points="39,-116 39,-153 117,-153 117,-116 39,-116"/>
<text text-anchor="start" x="58.5" y="-130.8" font-family="Times New Roman,serif" font-size="14.00">Léxico</text>
<polygon fill="none" stroke="black" points="117,-116 117,-153 433,-153 433,-116 117,-116"/>
<text text-anchor="start" x="173.5" y="-130.8" font-family="Times New Roman,serif" font-size="14.00">El caracter \ no pertenece al lenguaje</text>
<polygon fill="none" stroke="black" points="433,-116 433,-153 486,-153 486,-116 433,-116"/>
<text text-anchor="start" x="452.5" y="-130.8" font-family="Times New Roman,serif" font-size="14.00">21</text>
<polygon fill="none" stroke="black" points="486,-116 486,-153 559,-153 559,-116 486,-116"/>
<text text-anchor="start" x="519" y="-130.8" font-family="Times New Roman,serif" font-size="14.00">9</text>
<polygon fill="none" stroke="black" points="9,-79 9,-116 39,-116 39,-79 9,-79"/>
<text text-anchor="start" x="20.5" y="-93.8" font-family="Times New Roman,serif" font-size="14.00">1</text>
<polygon fill="none" stroke="black" points="39,-79 39,-116 117,-116 117,-79 39,-79"/>
<text text-anchor="start" x="50" y="-93.8" font-family="Times New Roman,serif" font-size="14.00">Sintáctico</text>
<polygon fill="none" stroke="black" points="117,-79 117,-116 433,-116 433,-79 117,-79"/>
<text text-anchor="start" x="177.5" y="-93.8" font-family="Times New Roman,serif" font-size="14.00">No se esperaba este componente: :</text>
<polygon fill="none" stroke="black" points="433,-79 433,-116 486,-116 486,-79 433,-79"/>
<text text-anchor="start" x="456" y="-93.8" font-family="Times New Roman,serif" font-size="14.00">7</text>
<polygon fill="none" stroke="black" points="486,-79 486,-116 559,-116 559,-79 486,-79"/>
<text text-anchor="start" x="515.5" y="-93.8" font-family="Times New Roman,serif" font-size="14.00">78</text>
<polygon fill="none" stroke="black" points="9,-42 9,-79 39,-79 39,-42 9,-42"/>
<text text-anchor="start" x="20.5" y="-56.8" font-family="Times New Roman,serif" font-size="14.00">2</text>
<polygon fill="none" stroke="black" points="39,-42 39,-79 117,-79 117,-42 39,-42"/>
<text text-anchor="start" x="50" y="-56.8" font-family="Times New Roman,serif" font-size="14.00">Sintáctico</text>
<polygon fill="none" stroke="black" points="117,-42 117,-79 433,-79 433,-42 117,-42"/>
<text text-anchor="start" x="128" y="-56.8" font-family="Times New Roman,serif" font-size="14.00">Error en operación no se esperaba el componente: B</text>
<polygon fill="none" stroke="black" points="433,-42 433,-79 486,-79 486,-42 433,-42"/>
<text text-anchor="start" x="456" y="-56.8" font-family="Times New Roman,serif" font-size="14.00">8</text>
<polygon fill="none" stroke="black" points="486,-42 486,-79 559,-79 559,-42 486,-42"/>
<text text-anchor="start" x="515.5" y="-56.8" font-family="Times New Roman,serif" font-size="14.00">16</text>
<polygon fill="none" stroke="black" points="9,-5 9,-42 39,-42 39,-5 9,-5"/>
<text text-anchor="start" x="20.5" y="-19.8" font-family="Times New Roman,serif" font-size="14.00">3</text>
<polygon fill="none" stroke="black" points="39,-5 39,-42 117,-42 117,-5 39,-5"/>
<text text-anchor="start" x="50" y="-19.8" font-family="Times New Roman,serif" font-size="14.00">Sintáctico</text>
<polygon fill="none" stroke="black" points="117,-5 117,-42 433,-42 433,-5 117,-5"/>
<text text-anchor="start" x="129.5" y="-19.8" font-family="Times New Roman,serif" font-size="14.00">Error en operación no se esperaba el componente: &quot;</text>
<polygon fill="none" stroke="black" points="433,-5 433,-42 486,-42 486,-5 433,-5"/>
<text text-anchor="start" x="452.5" y="-19.8" font-family="Times New Roman,serif" font-size="14.00">21</text>
<polygon fill="none" stroke="black" points="486,-5 486,-42 559,-42 559,-5 486,-5"/>
<text text-anchor="start" x="519" y="-19.8" font-family="Times New Roman,serif" font-size="14.00">8</text>
<polygon fill="none" stroke="black" points="8,-4 8,-228 560,-228 560,-4 8,-4"/>
</g>
</g>
</svg>
