<?xml version="1.0" encoding="UTF-8" standalone="no"?>
<!DOCTYPE svg PUBLIC "-//W3C//DTD SVG 1.1//EN"
 "http://www.w3.org/Graphics/SVG/1.1/DTD/svg11.dtd">
<!-- Generated by graphviz version 2.38.0 (20140413.2041)
 -->
<!-- Title: grafica Pages: 1 -->
<svg width="576pt" height="277pt"
 viewBox="0.00 0.00 576.00 277.00" xmlns="http://www.w3.org/2000/svg" xmlns:xlink="http://www.w3.org/1999/xlink">
<g id="graph0" class="graph" transform="scale(1 1) rotate(0) translate(4 273)">
<title>grafica</title>
<polygon fill="white" stroke="none" points="-4,4 -4,-273 572,-273 572,4 -4,4"/>
<!-- TABLA -->
<g id="node1" class="node"><title>TABLA</title>
<polygon fill="none" stroke="black" points="568,-269 0,-269 0,-0 568,-0 568,-269"/>
<polygon fill="none" stroke="black" points="9,-226.5 9,-263.5 559,-263.5 559,-226.5 9,-226.5"/>
<text text-anchor="start" x="280" y="-241.3" font-family="Times New Roman,serif" font-size="14.00">#</text>
<polygon fill="none" stroke="black" points="9,-189.5 9,-226.5 39,-226.5 39,-189.5 9,-189.5"/>
<text text-anchor="start" x="20" y="-204.3" font-family="Times New Roman,serif" font-size="14.00">#</text>
<polygon fill="none" stroke="black" points="39,-189.5 39,-226.5 117,-226.5 117,-189.5 39,-189.5"/>
<text text-anchor="start" x="64" y="-204.3" font-family="Times New Roman,serif" font-size="14.00">Tipo</text>
<polygon fill="none" stroke="black" points="117,-189.5 117,-226.5 433,-226.5 433,-189.5 117,-189.5"/>
<text text-anchor="start" x="241" y="-204.3" font-family="Times New Roman,serif" font-size="14.00">Descripcion</text>
<polygon fill="none" stroke="black" points="433,-189.5 433,-226.5 486,-226.5 486,-189.5 433,-189.5"/>
<text text-anchor="start" x="444" y="-204.3" font-family="Times New Roman,serif" font-size="14.00">Linea</text>
<polygon fill="none" stroke="black" points="486,-189.5 486,-226.5 559,-226.5 559,-189.5 486,-189.5"/>
<text text-anchor="start" x="497" y="-204.3" font-family="Times New Roman,serif" font-size="14.00">Columna</text>
<polygon fill="none" stroke="black" points="9,-152.5 9,-189.5 39,-189.5 39,-152.5 9,-152.5"/>
<text text-anchor="start" x="20.5" y="-167.3" font-family="Times New Roman,serif" font-size="14.00">1</text>
<polygon fill="none" stroke="black" points="39,-152.5 39,-189.5 117,-189.5 117,-152.5 39,-152.5"/>
<text text-anchor="start" x="58.5" y="-167.3" font-family="Times New Roman,serif" font-size="14.00">Léxico</text>
<polygon fill="none" stroke="black" points="117,-152.5 117,-189.5 433,-189.5 433,-152.5 117,-152.5"/>
<text text-anchor="start" x="173.5" y="-167.3" font-family="Times New Roman,serif" font-size="14.00">El caracter \ no pertenece al lenguaje</text>
<polygon fill="none" stroke="black" points="433,-152.5 433,-189.5 486,-189.5 486,-152.5 433,-152.5"/>
<text text-anchor="start" x="452.5" y="-167.3" font-family="Times New Roman,serif" font-size="14.00">21</text>
<polygon fill="none" stroke="black" points="486,-152.5 486,-189.5 559,-189.5 559,-152.5 486,-152.5"/>
<text text-anchor="start" x="519" y="-167.3" font-family="Times New Roman,serif" font-size="14.00">9</text>
<polygon fill="none" stroke="black" points="9,-115.5 9,-152.5 39,-152.5 39,-115.5 9,-115.5"/>
<text text-anchor="start" x="20.5" y="-130.3" font-family="Times New Roman,serif" font-size="14.00">1</text>
<polygon fill="none" stroke="black" points="39,-115.5 39,-152.5 117,-152.5 117,-115.5 39,-115.5"/>
<text text-anchor="start" x="50" y="-130.3" font-family="Times New Roman,serif" font-size="14.00">Sintáctico</text>
<polygon fill="none" stroke="black" points="117,-115.5 117,-152.5 433,-152.5 433,-115.5 117,-115.5"/>
<text text-anchor="start" x="177.5" y="-130.3" font-family="Times New Roman,serif" font-size="14.00">No se esperaba este componente: :</text>
<polygon fill="none" stroke="black" points="433,-115.5 433,-152.5 486,-152.5 486,-115.5 433,-115.5"/>
<text text-anchor="start" x="456" y="-130.3" font-family="Times New Roman,serif" font-size="14.00">7</text>
<polygon fill="none" stroke="black" points="486,-115.5 486,-152.5 559,-152.5 559,-115.5 486,-115.5"/>
<text text-anchor="start" x="515.5" y="-130.3" font-family="Times New Roman,serif" font-size="14.00">78</text>
<polygon fill="none" stroke="black" points="9,-78.5 9,-115.5 39,-115.5 39,-78.5 9,-78.5"/>
<text text-anchor="start" x="20.5" y="-93.3" font-family="Times New Roman,serif" font-size="14.00">2</text>
<polygon fill="none" stroke="black" points="39,-78.5 39,-115.5 117,-115.5 117,-78.5 39,-78.5"/>
<text text-anchor="start" x="50" y="-93.3" font-family="Times New Roman,serif" font-size="14.00">Sintáctico</text>
<polygon fill="none" stroke="black" points="117,-78.5 117,-115.5 433,-115.5 433,-78.5 117,-78.5"/>
<text text-anchor="start" x="128" y="-93.3" font-family="Times New Roman,serif" font-size="14.00">Error en operación no se esperaba el componente: B</text>
<polygon fill="none" stroke="black" points="433,-78.5 433,-115.5 486,-115.5 486,-78.5 433,-78.5"/>
<text text-anchor="start" x="456" y="-93.3" font-family="Times New Roman,serif" font-size="14.00">8</text>
<polygon fill="none" stroke="black" points="486,-78.5 486,-115.5 559,-115.5 559,-78.5 486,-78.5"/>
<text text-anchor="start" x="515.5" y="-93.3" font-family="Times New Roman,serif" font-size="14.00">16</text>
<polygon fill="none" stroke="black" points="9,-41.5 9,-78.5 39,-78.5 39,-41.5 9,-41.5"/>
<text text-anchor="start" x="20.5" y="-56.3" font-family="Times New Roman,serif" font-size="14.00">3</text>
<polygon fill="none" stroke="black" points="39,-41.5 39,-78.5 117,-78.5 117,-41.5 39,-41.5"/>
<text text-anchor="start" x="50" y="-56.3" font-family="Times New Roman,serif" font-size="14.00">Sintáctico</text>
<polygon fill="none" stroke="black" points="117,-41.5 117,-78.5 433,-78.5 433,-41.5 117,-41.5"/>
<text text-anchor="start" x="131" y="-56.3" font-family="Times New Roman,serif" font-size="14.00">Error en operación no se esperaba el componente: :</text>
<polygon fill="none" stroke="black" points="433,-41.5 433,-78.5 486,-78.5 486,-41.5 433,-41.5"/>
<text text-anchor="start" x="456" y="-56.3" font-family="Times New Roman,serif" font-size="14.00">9</text>
<polygon fill="none" stroke="black" points="486,-41.5 486,-78.5 559,-78.5 559,-41.5 486,-41.5"/>
<text text-anchor="start" x="519" y="-56.3" font-family="Times New Roman,serif" font-size="14.00">6</text>
<polygon fill="none" stroke="black" points="9,-4.5 9,-41.5 39,-41.5 39,-4.5 9,-4.5"/>
<text text-anchor="start" x="20.5" y="-19.3" font-family="Times New Roman,serif" font-size="14.00">4</text>
<polygon fill="none" stroke="black" points="39,-4.5 39,-41.5 117,-41.5 117,-4.5 39,-4.5"/>
<text text-anchor="start" x="50" y="-19.3" font-family="Times New Roman,serif" font-size="14.00">Sintáctico</text>
<polygon fill="none" stroke="black" points="117,-4.5 117,-41.5 433,-41.5 433,-4.5 117,-4.5"/>
<text text-anchor="start" x="129.5" y="-19.3" font-family="Times New Roman,serif" font-size="14.00">Error en operación no se esperaba el componente: &quot;</text>
<polygon fill="none" stroke="black" points="433,-4.5 433,-41.5 486,-41.5 486,-4.5 433,-4.5"/>
<text text-anchor="start" x="452.5" y="-19.3" font-family="Times New Roman,serif" font-size="14.00">21</text>
<polygon fill="none" stroke="black" points="486,-4.5 486,-41.5 559,-41.5 559,-4.5 486,-4.5"/>
<text text-anchor="start" x="519" y="-19.3" font-family="Times New Roman,serif" font-size="14.00">8</text>
<polygon fill="none" stroke="black" points="8,-4 8,-265 560,-265 560,-4 8,-4"/>
</g>
</g>
</svg>
